<svg width="258" height="96" viewBox="0 0 258 96" fill="none" xmlns="http://www.w3.org/2000/svg">
<path d="M11.7036 93.6914C9.22436 92.5504 7.95652 90.1939 7.50649 87.2279C5.86839 76.4314 15.1834 56.6301 20.8083 47.7053C24.3736 42.006 28.5413 36.2759 34.5556 33.118C35.5604 32.5407 36.5418 32.2098 37.491 32.0658C40.0418 31.6787 41.9961 32.9601 42.4371 35.8668C42.5811 36.8159 42.5652 37.9107 42.3389 39.2195C41.0265 47.3686 37.9144 54.4556 33.3782 59.756C33.1266 60.0976 32.7977 60.3296 32.5011 60.3746C32.3231 60.4016 32.1955 60.3603 32.0085 60.328C31.6939 60.2543 31.4116 59.9937 31.3576 59.6378C31.2173 59.1129 31.4329 58.534 31.8031 58.1744L32.0727 57.9515C32.1824 57.8741 32.452 57.6512 32.434 57.5325C32.4573 57.2862 32.7179 57.0039 32.9552 56.9679L33.0738 56.9499C33.3794 56.9643 33.6527 57.1655 33.6977 57.4622C37.4304 52.4657 39.989 46.1302 41.0985 39.0436C41.2834 37.8624 41.3174 36.8863 41.1914 36.0558C40.8674 33.9203 39.5692 32.9642 37.6116 33.2612C36.8405 33.3782 35.9777 33.6912 35.0825 34.1911C29.3558 37.2447 25.3392 42.7698 21.8151 48.3415C15.705 58.0681 7.25814 77.1916 8.75223 87.0389C9.14826 89.649 10.2345 91.6082 12.2624 92.575C13.1829 93.0422 14.2867 93.1174 15.4138 92.9464C25.5577 91.4073 43.7185 69.1107 49.0112 61.9963C49.1118 61.8597 49.2808 61.7733 49.4587 61.7463C49.5774 61.7283 49.7643 61.7607 49.901 61.8613C50.0376 61.9619 50.1239 62.1309 50.142 62.2495C50.169 62.4275 50.1366 62.6145 50.036 62.7511C44.1718 70.4985 26.3902 92.4947 15.5345 94.1418C14.1108 94.3579 12.82 94.2503 11.7036 93.6914ZM64.8858 59.6484C64.9864 59.5118 65.1554 59.4254 65.274 59.4074C65.6299 59.3534 65.9806 59.6643 66.0346 60.0203C66.0526 60.1389 65.9609 60.3349 65.8603 60.4715C64.0217 62.7531 59.6467 65.1162 56.3247 65.6202C54.2485 65.9352 52.5388 65.4664 52.3784 63.6094C51.2714 65.1125 48.9063 68.3236 47.186 68.5846C46.8894 68.6296 46.5838 68.6153 46.3105 68.414C45.9779 68.2218 45.7963 67.8245 45.7333 67.4093C45.3822 65.0957 48.0239 60.5076 51.3458 60.0035C51.939 59.9135 52.4909 59.9512 53.1291 60.1578C53.1795 60.0894 53.2298 60.0211 53.2891 60.0121C53.2801 59.9528 53.6827 59.4062 53.6827 59.4062C53.7743 59.2103 53.9433 59.1239 54.1212 59.0969C54.4772 59.0429 54.8188 59.2945 54.8638 59.5911C54.8908 59.7691 54.8495 59.8967 54.7578 60.0927C53.9061 61.6784 53.5935 62.8182 53.6925 63.4707C53.8365 64.4199 54.73 64.7091 55.9164 64.5291C58.7638 64.0971 63.3815 61.3331 64.8858 59.6484ZM47.006 67.3982C48.0865 67.7198 51.8155 62.2991 52.4013 61.3605C52.0867 61.2869 51.7811 61.2726 51.4252 61.3266C48.5185 61.7676 46.3048 66.7764 47.006 67.3982ZM64.579 70.8006C63.8671 70.9086 63.3979 70.6157 63.2522 70.4557C63.0383 70.2454 62.9339 69.9578 62.8799 69.6019C62.5109 67.1698 67.1228 62.7681 67.0058 61.9969C66.9788 61.819 66.6282 61.5081 64.9598 60.9116C63.9387 60.581 63.4658 59.8638 63.3578 59.152C63.1238 57.6096 64.4734 55.7056 65.7785 55.5076C66.431 55.4086 66.9686 55.7519 67.0586 56.3451C67.1396 56.879 66.8593 57.8318 65.3227 59.7035C67.374 60.4239 68.1255 60.9774 68.2696 61.9266C68.5126 63.5282 66.1921 65.0334 64.246 68.6057C64.0034 69.0067 64.0484 69.3033 64.0664 69.4219L64.0844 69.5405C64.9995 70.3727 75.3918 61.2708 78.8299 57.5327C78.9306 57.3961 79.0995 57.3097 79.2775 57.2827C79.4555 57.2557 79.5831 57.2971 79.7287 57.457C80.002 57.6583 80.0057 58.0825 79.7954 58.2965C77.272 60.8641 67.3671 70.3776 64.579 70.8006ZM82.0783 64.9898C80.8919 65.1698 79.8977 65.0172 79.0869 64.4727C78.2077 63.8778 77.6304 62.8731 77.4234 61.5087C76.9014 58.0681 78.5738 52.2918 82.3671 44.4946C82.4587 44.2986 82.6187 44.153 82.7967 44.126C82.9153 44.108 83.0429 44.1493 83.1706 44.1906C83.3665 44.2822 83.5122 44.4422 83.5482 44.6795C83.5662 44.7981 83.5249 44.9258 83.4836 45.0534C78.9985 54.2907 78.3685 58.9378 78.7285 61.3107C78.9265 62.6157 79.4407 63.2053 79.7824 63.4569C80.3199 63.8001 80.9995 63.8791 81.83 63.7531C84.7367 63.312 89.232 60.1418 93.4753 55.3106C93.6766 55.0373 94.1008 55.0337 94.3741 55.2349C94.5971 55.5045 94.6511 55.8605 94.3905 56.1428C89.8956 61.3156 85.341 64.4948 82.0783 64.9898ZM109.351 52.9019C109.452 52.7652 109.621 52.6789 109.739 52.6609C110.095 52.6069 110.446 52.9178 110.5 53.2737C110.518 53.3924 110.426 53.5883 110.326 53.725C108.487 56.0066 104.112 58.3696 100.79 58.8737C98.7138 59.1887 97.0041 58.7198 96.8438 56.8629C95.7367 58.366 93.3716 61.5771 91.6513 61.8381C91.3547 61.8831 91.0491 61.8688 90.7758 61.6675C90.4432 61.4752 90.2616 61.078 90.1986 60.6627C89.8475 58.3492 92.4892 53.761 95.8111 53.257C96.4044 53.167 96.9563 53.2046 97.5945 53.4112C97.6448 53.3429 97.6951 53.2746 97.7544 53.2656C97.7454 53.2063 98.148 52.6597 98.148 52.6597C98.2396 52.4637 98.4086 52.3774 98.5866 52.3504C98.9425 52.2964 99.2841 52.548 99.3291 52.8446C99.3561 53.0226 99.3148 53.1502 99.2231 53.3462C98.3714 54.9319 98.0588 56.0717 98.1578 56.7242C98.3018 57.6733 99.1953 57.9626 100.382 57.7826C103.229 57.3505 107.847 54.5866 109.351 52.9019ZM91.4713 60.6517C92.5518 60.9732 96.2808 55.5525 96.8667 54.614C96.5521 54.5404 96.2464 54.5261 95.8905 54.5801C92.9838 55.0211 90.7701 60.0298 91.4713 60.6517ZM156.988 37.6635C158.824 49.765 135.784 71.1026 116.986 77.596C116.903 77.8513 116.88 78.0976 116.797 78.3529C116.732 78.7268 116.463 78.9498 116.225 78.9858C115.87 79.0398 115.409 78.8062 115.406 78.3819L115.379 78.204L115.37 78.1447C113.576 78.7203 111.426 79.3499 109.29 79.6739C106.265 80.133 103.505 79.9448 102.301 78.0035C102.06 77.6153 101.928 77.1497 101.865 76.7345C101.352 73.3532 106.601 69.9473 110.474 67.4783C112.466 66.2052 114.535 65.0417 116.612 63.9375C117.742 58.1829 119.679 52.5486 122.272 47.2396C122.414 46.9753 122.574 46.8297 122.811 46.7937C122.989 46.7666 123.116 46.808 123.253 46.9086L128.257 27.0937C126.356 28.9601 124.55 31.0547 123.117 33.214C122.966 33.419 122.857 33.4963 122.679 33.5233C122.323 33.5773 121.904 33.2161 121.85 32.8602C121.823 32.6822 121.855 32.4952 121.956 32.3586C123.933 29.3884 126.31 26.6609 128.929 24.3216C129.61 21.6088 130.161 19.6438 130.382 18.7C130.447 18.3261 130.707 18.0438 131.141 18.0994C131.506 18.1047 131.865 18.475 131.801 18.8489L130.816 22.7608C133.261 20.8728 138.888 17.1666 143.097 16.1033C143.384 15.999 143.74 15.945 143.977 15.909C146.588 15.513 147.963 16.5787 148.179 18.0024C148.296 18.7736 148.116 19.5898 147.622 20.3323C146.098 22.6876 141.812 26.433 133.073 34.4344C136.452 32.7079 140.292 31.2151 143.97 30.657C147.47 30.126 150.731 30.4202 153.223 32.0447C155.45 33.5274 156.646 35.4093 156.988 37.6635ZM143.436 59.1394C149.094 54.0328 156.457 44.9657 155.413 38.0844C155.287 37.2539 155.043 36.4414 154.62 35.656C152.816 32.1671 148.872 31.3697 144.364 32.0538C138.787 32.8998 132.458 35.9841 128.461 38.836C128.351 38.9133 128.233 38.9313 128.114 38.9493C127.699 39.0124 127.348 38.7014 127.294 38.3455C127.285 38.2862 127.267 38.1675 127.318 38.0992C127.35 37.9123 127.382 37.7253 127.593 37.5113C140.742 25.3816 144.809 21.7908 146.094 20.2607C146.606 19.6368 146.863 18.9303 146.782 18.3964C146.656 17.5659 145.777 16.9711 144.006 17.3004C140.753 17.8547 135.213 20.9407 130.177 25.346C126.033 41.6319 126.626 39.5393 120.964 61.8207C126.914 59.0367 133.182 56.7506 139.391 54.4735L139.509 54.4555C139.806 54.4104 140.129 54.5434 140.302 54.8813C140.311 54.9407 140.379 54.991 140.388 55.0503C140.433 55.3469 140.241 55.6795 139.953 55.7838C134.032 57.9566 128.052 60.1384 122.322 62.7678C121.865 62.9584 121.239 63.2354 120.504 63.5897C119.644 67.1187 118.618 71.1583 117.404 75.9547C124.627 73.1596 133.948 67.8007 143.436 59.1394ZM122.342 50.5059C120.546 54.6625 119.182 58.8747 118.252 63.1426L119.325 62.6156C120.268 58.8313 121.284 54.7325 122.342 50.5059ZM118.874 64.4439C118.527 64.5573 118.248 64.7209 117.911 64.8935C117.472 67.2054 117.162 69.5586 116.961 71.8345L118.874 64.4439ZM103.438 77.1027C103.983 78.2944 106.167 78.6912 109.549 78.1782C111.21 77.9262 113.2 77.4422 115.391 76.6849C115.376 72.9854 115.675 69.3594 116.28 65.7478C110.047 69.0604 102.071 74.0937 103.438 77.1027ZM195.072 40.0171C195.209 40.1177 195.227 40.2364 195.245 40.355C195.272 40.533 195.189 40.7883 195.089 40.9249C193.786 42.3364 191.365 43.9781 188.853 45.0267C188 45.399 186.671 45.8433 185.425 46.0323C184.298 46.2033 183.263 46.1783 182.511 45.6248C181.965 45.2222 181.706 44.7154 181.607 44.0628C180.006 46.3084 177.998 48.6764 176.652 49.002L176.533 49.02C176.118 49.083 175.794 48.9501 175.589 48.7991C175.248 48.5475 175.075 48.2096 175.003 47.735C174.922 47.2011 175.001 46.5216 175.258 45.8151L175.199 45.8241C171.978 48.194 166.83 51.4633 163.27 52.0033C162.974 52.0483 162.677 52.0933 162.372 52.079C161.345 52.1133 160.511 51.8151 159.928 51.1753C159.346 50.5354 159.06 49.8506 158.943 49.0794C158.736 47.715 159.131 46.3199 159.699 45.2628C160.802 43.3355 162.355 42.3716 163.601 42.1826C164.491 42.0476 165.147 42.3728 165.424 42.9983C165.501 43.108 165.528 43.2859 165.546 43.4046C165.618 43.8792 165.503 44.3214 165.133 44.681C164.662 45.1773 163.868 45.5406 162.978 45.6756C162.325 45.7746 161.655 45.7549 161.026 45.6077C160.916 45.685 160.875 45.8126 160.824 45.8809C160.357 46.8014 159.985 47.9502 160.138 48.9587C160.219 49.4926 160.41 49.9491 160.77 50.3194C161.129 50.6896 161.699 50.8459 162.361 50.8062C162.607 50.8296 162.844 50.7935 163.141 50.7485C167.59 50.0735 175.516 44.3193 176.852 42.7209C177.885 41.5325 179.142 40.6136 180.506 40.4066C181.158 40.3076 181.779 40.3955 182.417 40.6022C182.609 40.2695 182.751 40.0053 182.902 39.8003C183.094 39.4677 183.51 39.4047 183.774 39.5466C184.106 39.7389 184.16 40.0948 184.028 40.4185C183.176 42.0042 182.754 43.2213 182.862 43.9331C182.907 44.2297 183.061 44.449 183.266 44.6C183.676 44.9019 184.347 44.9215 185.296 44.7775C186.186 44.6425 187.235 44.3619 188.377 43.8853C190.769 42.8547 193.03 41.3586 194.164 40.0335C194.265 39.8968 194.443 39.8698 194.562 39.8518C194.74 39.8248 194.927 39.8571 195.072 40.0171ZM163.731 43.4373C163.256 43.5093 162.58 43.8546 161.94 44.4372C162.246 44.4515 162.552 44.4658 162.848 44.4208C163.441 44.3308 163.948 44.0719 164.209 43.7896C164.369 43.6439 164.351 43.5253 164.283 43.475C164.283 43.475 164.087 43.3833 163.731 43.4373ZM179.727 44.4695C180.381 43.5813 181.076 42.5655 181.671 41.6863C181.356 41.6127 181.051 41.5983 180.754 41.6433C179.864 41.7783 178.91 42.2873 177.995 43.4578L177.945 43.5261C177.886 43.5351 177.895 43.5944 177.895 43.5944C177.684 43.8084 177.483 44.0816 177.341 44.3459C176.151 46.1043 176.071 47.573 176.285 47.7833C176.344 47.7743 177.202 47.8262 179.727 44.4695ZM209.839 37.7159C209.916 37.8256 209.994 37.9352 210.012 38.0539C210.039 38.2318 210.006 38.4188 209.846 38.5644C204.995 43.7912 200.532 46.7745 197.329 47.2605C194.956 47.6205 193.335 46.5315 192.939 43.9214C192.596 41.6672 193.11 38.2515 194.885 33.552C193.986 33.6277 193.096 33.7627 192.266 33.8887C190.902 34.0957 189.724 34.3351 188.948 34.817C188.888 34.826 188.838 34.8943 188.719 34.9123C188.482 34.9483 188.218 34.8064 188.063 34.5871L188.036 34.4091C188 34.1718 188.074 33.8572 188.302 33.7619C189.307 33.1847 190.772 32.841 192.314 32.607C193.382 32.445 194.459 32.3423 195.417 32.2576C196.132 30.5712 197.025 28.8579 197.823 26.9162C197.956 26.5926 198.303 26.4793 198.626 26.6123C198.95 26.7452 199.072 27.1515 198.939 27.4751C198.233 29.2208 197.423 30.6788 196.841 32.0416C198.511 31.8489 200.094 31.4872 201.363 31.0519L201.482 31.0339C201.779 30.9889 202.052 31.1902 202.206 31.4095L202.224 31.5281C202.269 31.8248 202.077 32.1574 201.849 32.2527C200.242 32.8606 198.284 33.1576 196.318 33.3953C194.167 38.8193 193.855 41.9617 194.125 43.7414C194.332 45.1057 194.906 45.6863 195.238 45.8785C195.776 46.2218 196.515 46.2917 197.345 46.1657C200.252 45.7247 204.688 42.5635 208.931 37.7323C209.041 37.655 209.21 37.5687 209.328 37.5507C209.506 37.5237 209.693 37.556 209.839 37.7159ZM208.544 48.9574C207.832 49.0654 207.363 48.7725 207.217 48.6125C207.003 48.4023 206.899 48.1146 206.845 47.7587C206.476 45.3266 211.088 40.9249 210.971 40.1537C210.944 39.9758 210.593 39.6649 208.925 39.0684C207.904 38.7378 207.431 38.0206 207.323 37.3088C207.089 35.7664 208.438 33.8624 209.743 33.6644C210.396 33.5654 210.933 33.9087 211.023 34.5019C211.104 35.0358 210.824 35.9886 209.288 37.8603C211.339 38.5807 212.09 39.1342 212.234 40.0834C212.477 41.685 210.157 43.1902 208.211 46.7625C207.968 47.1635 208.013 47.4601 208.031 47.5787L208.049 47.6974C208.964 48.5295 219.357 39.4276 222.795 35.6895C222.895 35.5529 223.064 35.4665 223.242 35.4395C223.42 35.4125 223.548 35.4539 223.694 35.6138C223.967 35.8151 223.971 36.2394 223.76 36.4533C221.237 39.0209 211.332 48.5344 208.544 48.9574ZM224.011 32.9561C223.596 33.0191 223.246 32.7081 223.192 32.3522C223.129 31.937 223.38 31.5954 223.795 31.5324C224.151 31.4784 224.552 31.721 224.615 32.1362C224.669 32.4921 224.367 32.9021 224.011 32.9561ZM224.61 41.3007C223.364 41.4897 222.379 41.3964 221.628 40.8429C221.149 40.4907 220.908 40.1024 220.818 39.5092C220.674 38.5601 221.07 37.165 221.734 35.547C221.826 35.351 221.995 35.2647 222.173 35.2377C222.292 35.2197 222.419 35.261 222.547 35.3023C222.752 35.4533 222.897 35.6132 222.924 35.7912C222.942 35.9098 222.901 36.0375 222.86 36.1651C222.191 37.3589 221.879 38.4987 221.987 39.2106C222.023 39.4478 222.118 39.6761 222.323 39.8271C222.801 40.1793 223.54 40.2493 224.43 40.1143C227.989 39.5742 234.074 35.6775 235.483 33.7644C235.684 33.4912 236.108 33.4875 236.381 33.6888C236.655 33.89 236.658 34.3143 236.457 34.5876C235.149 36.3639 228.881 40.6527 224.61 41.3007ZM253.429 31.1022C253.506 31.2119 253.583 31.3215 253.601 31.4402C253.637 31.6774 253.546 31.8734 253.386 32.019C251.768 33.3568 248.619 34.1988 244.166 36.4522C245.162 42.6126 237.886 57.8565 231.776 58.7835C229.403 59.1436 228.069 57.9502 227.763 55.9333C227.034 51.1283 231.958 41.5816 242.726 35.7604C242.25 34.619 241.306 34.398 240.179 34.5691C239.645 34.6501 239.01 34.8677 238.435 35.0764C238.326 35.1537 238.275 35.222 238.216 35.231L237.979 35.267C237.682 35.312 237.418 35.17 237.254 34.8914C237.168 34.7225 237.2 34.5355 237.301 34.3989C237.342 34.2712 237.452 34.1939 237.561 34.1166C240.513 31.9696 241.762 30.2022 241.636 29.3717C241.6 29.1344 241.513 28.9655 241.267 28.9421C241.08 28.9098 240.952 28.8685 240.775 28.8955C238.995 29.1655 237.209 32.5922 235.234 34.7732C235.133 34.9099 235.014 34.9279 234.896 34.9459C234.718 34.9729 234.531 34.9405 234.326 34.7896C234.189 34.6889 234.112 34.5793 234.094 34.4607C234.067 34.2827 234.158 34.0867 234.259 33.9501C235.92 31.6955 238.103 28.0871 240.535 27.7181C241.781 27.5291 242.728 28.1742 242.899 29.3013C243.052 30.3098 242.539 31.7229 240.889 33.2476C242.17 33.2959 243.219 33.8044 243.79 35.1741C247.973 33.1437 251.31 32.3341 252.53 31.1779C252.631 31.0413 252.74 30.9639 252.859 30.9459C253.096 30.9099 253.292 31.0016 253.429 31.1022ZM231.578 57.4785C236.739 56.6954 243.501 42.8646 242.984 37.0564C233.019 42.5737 228.32 51.6008 228.914 55.516C229.13 56.9397 230.036 57.7125 231.578 57.4785Z" fill="#888888"/>
</svg>
