<svg width="135" height="53" viewBox="0 0 135 53" fill="none" xmlns="http://www.w3.org/2000/svg">
<path d="M43.5781 19.2781C43.5781 19.9261 43.4701 20.6281 43.3621 21.3841C42.0661 28.9981 35.0461 41.3101 35.5321 47.8441C35.5321 48.1141 35.2621 48.3841 34.9921 48.3841C34.6681 48.3841 34.4521 48.1141 34.4521 47.8441C33.8581 40.4461 42.5521 26.0281 42.4981 19.0621C42.4981 17.0641 41.7961 15.7141 40.2841 15.7141C39.2581 15.7141 37.8001 16.4161 35.9101 18.0361C26.2441 26.4601 21.0601 37.9621 16.1461 48.9781C16.0381 49.1401 15.8761 49.2481 15.7141 49.2481C15.3901 49.2481 15.0661 48.9241 15.1741 48.5461L15.9841 45.9541C18.1981 38.8261 20.5741 31.6981 22.4641 24.4621C24.0841 18.4141 25.8121 11.4481 25.7041 5.23808C25.6501 2.64608 25.4341 1.08009 24.5161 1.08009C23.8681 1.08009 22.8961 1.83609 21.4381 3.51008C15.4981 10.4221 11.0701 18.6301 7.50608 27.1081C5.94008 35.8021 4.64408 44.1181 1.18808 52.1101C1.13407 52.3261 0.918075 52.3801 0.756075 52.3801C0.486075 52.3801 0.270075 52.2181 0.216075 52.0021C0.0540748 50.9761 7.50571e-05 49.9501 7.50571e-05 48.9781C7.50571e-05 45.3601 0.918075 41.8501 2.16008 38.2861C3.51008 34.2901 5.02208 30.2941 6.48008 26.7841C7.39808 21.7621 8.37008 16.7401 9.88208 11.9881C9.82808 11.9881 9.82808 11.9881 9.82808 12.0421C9.61208 12.2041 9.28808 12.2581 9.07208 12.0421C8.96408 11.9341 8.91008 11.7721 8.91008 11.6101C8.91008 11.5021 8.96408 11.3401 9.07208 11.2321C9.61208 10.8541 10.0981 10.3681 10.5301 9.93608C11.6641 6.80409 13.0141 3.78008 14.6881 0.972084C14.7961 0.810082 14.9581 0.702084 15.1741 0.702084C15.4441 0.702084 15.7141 0.918084 15.6601 1.24208C15.6061 2.16008 15.4441 3.07809 15.1741 3.99608C14.4721 6.42608 13.2301 8.64008 11.5021 10.4761L11.0161 11.9341C9.93608 15.3901 9.12608 18.9001 8.37008 22.4641C11.7721 15.1741 15.7681 8.31609 21.0601 2.32209C22.4101 0.756083 23.5981 8.32081e-05 24.5701 8.32081e-05C25.8661 8.32081e-05 26.6761 1.45808 26.7841 4.26608C26.9461 8.10009 26.4061 11.9341 25.7041 15.6601C24.0301 23.9761 21.2761 32.6701 18.7381 40.6621C21.2761 35.3161 23.9221 30.3481 27.5941 25.6501C30.0241 22.4101 33.5881 18.2521 36.8281 15.9301C38.1241 15.0121 39.3121 14.5801 40.2841 14.5801C42.3361 14.5801 43.5781 16.3621 43.5781 19.2781ZM1.02607 49.6261C3.24008 43.9561 4.42808 38.0161 5.56208 32.0221C4.37408 34.9921 3.29408 38.0161 2.37608 41.0941C1.56608 43.8481 0.972075 46.7641 1.02607 49.6261ZM63.7855 28.2421C63.8935 28.1341 64.0555 28.0801 64.1635 28.0801C64.4875 28.0801 64.7575 28.4041 64.7575 28.7281C64.7575 28.8361 64.6495 28.9981 64.5415 29.1061C62.5975 30.8881 58.3855 32.4001 55.3615 32.4001C53.4715 32.4001 52.0135 31.7521 52.1215 30.0781C50.9335 31.2661 48.3955 33.8041 46.8295 33.8041C46.5595 33.8041 46.2895 33.7501 46.0735 33.5341C45.8035 33.3181 45.6955 32.9401 45.6955 32.5621C45.6955 30.4561 48.6655 26.7301 51.6895 26.7301C52.2295 26.7301 52.7155 26.8381 53.2555 27.1081C53.3095 27.0541 53.3635 27.0001 53.4175 27.0001C53.4175 26.9461 53.8495 26.5141 53.8495 26.5141C53.9575 26.3521 54.1195 26.2981 54.2815 26.2981C54.6055 26.2981 54.8755 26.5681 54.8755 26.8381C54.8755 27.0001 54.8215 27.1081 54.7135 27.2701C53.7415 28.5661 53.3095 29.5381 53.3095 30.1321C53.3095 30.9961 54.0655 31.3741 55.1455 31.3741C57.7375 31.3741 62.2195 29.5381 63.7855 28.2421ZM46.8295 32.7241C47.7475 33.1561 51.7975 28.8361 52.4455 28.0801C52.1755 27.9721 51.9055 27.9181 51.5815 27.9181C48.9355 27.9181 46.2895 32.0761 46.8295 32.7241ZM62.0068 38.1241C61.3588 38.1241 60.9808 37.8001 60.8728 37.6381C60.7108 37.4221 60.6568 37.1521 60.6568 36.8281C60.6568 34.6141 65.3548 31.3201 65.3548 30.6181C65.3548 30.4561 65.0848 30.1321 63.6808 29.3761C62.8168 28.9441 62.4928 28.2421 62.4928 27.5941C62.4928 26.1901 63.9508 24.6781 65.1388 24.6781C65.7328 24.6781 66.1648 25.0561 66.1648 25.5961C66.1648 26.0821 65.7868 26.8921 64.1668 28.3501C65.8948 29.2681 66.4888 29.8621 66.4888 30.7261C66.4888 32.1841 64.2208 33.2101 62.0068 36.1261C61.7368 36.4501 61.7368 36.7201 61.7368 36.8281V36.9361C62.4388 37.8001 72.9148 31.1041 76.4788 28.2421C76.5868 28.1341 76.7488 28.0801 76.9108 28.0801C77.0728 28.0801 77.1808 28.1341 77.2888 28.2961C77.5048 28.5121 77.4508 28.8901 77.2348 29.0521C74.6428 30.9961 64.5448 38.1241 62.0068 38.1241ZM76.7965 34.7221C76.5265 34.7221 76.3105 34.7221 76.0945 34.6681C75.1225 34.4521 74.4205 34.1821 73.9885 33.5341C73.6645 32.9941 73.4485 32.4541 73.4485 31.8601C73.4485 31.3201 73.6105 30.7801 73.8805 30.1861C74.7985 28.1881 77.3365 26.4601 79.3345 26.4601C80.3065 26.4601 81.0625 26.8921 81.4945 27.5941C81.7105 27.9181 81.5485 28.4581 81.0625 28.4581C80.8465 28.4581 80.6305 28.3501 80.5225 28.1881C80.3065 27.8101 79.9285 27.6481 79.4425 27.6481H79.2265C77.3365 27.8641 74.5825 29.8081 74.5825 31.8061C74.5825 32.2381 74.7445 32.6161 74.9605 32.9401C75.2305 33.3721 75.8785 33.5341 76.7425 33.5341C78.4165 33.5341 81.0085 32.8861 84.1405 31.5361C87.1105 30.2401 89.5945 28.7281 90.2425 28.2421C90.5125 28.0261 90.8905 28.0801 91.0525 28.2961C91.2145 28.5661 91.2145 28.8901 90.9985 29.1061C89.7025 30.4021 81.3865 34.7221 76.7965 34.7221ZM120.235 28.2961C120.289 28.4041 120.343 28.5121 120.343 28.6201C120.343 28.8361 120.289 28.9981 120.127 29.1061C115.375 33.1021 110.893 35.3161 107.869 35.3161C106.789 35.3161 105.925 35.0461 105.277 34.4521C104.575 33.8041 104.197 32.8321 104.197 31.5901C104.197 30.1861 104.629 28.4581 105.493 26.4061C100.255 31.5901 94.5309 34.5061 91.2909 34.6141C91.1829 34.6681 91.1289 34.6681 91.0209 34.6681C89.5629 34.6681 88.8609 34.0741 88.5369 33.5881C88.1049 32.9401 87.8889 32.2921 87.8889 31.5901C87.8889 30.3481 88.4829 29.1601 89.1309 28.2421C90.5349 26.4061 92.3709 25.8121 93.5049 26.0281C94.0449 26.1361 94.4229 26.4601 94.5849 26.9461C94.5849 27.0541 94.6389 27.1621 94.6389 27.2701C94.6389 27.7021 94.4229 28.0801 94.0449 28.4041C93.5589 28.8361 92.8029 29.0521 92.0469 29.0521C91.4529 29.0521 90.8049 28.9441 90.2649 28.6741C90.1569 28.7821 90.1029 28.8361 90.0489 28.9441C89.5089 29.6461 89.0229 30.6181 89.0229 31.5901C89.0229 32.0761 89.1849 32.5081 89.4549 32.9401C89.8329 33.4801 90.6429 33.5341 91.2369 33.4801C94.8549 33.3181 101.875 29.2681 107.383 22.6261C108.355 20.8981 109.543 19.0621 110.893 17.0101C111.001 16.8481 111.163 16.7401 111.325 16.7401C111.811 16.7401 112.351 17.3881 112.081 17.8201C110.947 19.8181 109.651 21.6541 108.301 23.3281C105.979 27.4861 105.385 30.0241 105.385 31.5901C105.385 32.8321 105.763 33.4261 106.033 33.6421C106.465 34.0201 107.113 34.2361 107.869 34.2361C110.515 34.2361 114.997 31.9681 119.425 28.2421C119.533 28.1341 119.641 28.0801 119.803 28.0801C119.965 28.0801 120.127 28.1341 120.235 28.2961ZM93.1269 27.1621C92.6409 27.1621 91.9929 27.3241 91.1829 27.8101C91.4529 27.8641 91.7229 27.9181 91.9389 27.9181C92.5329 27.9181 93.0729 27.7561 93.2889 27.5401C93.5049 27.3781 93.4509 27.2701 93.4509 27.2161C93.4509 27.2161 93.3429 27.1621 93.1269 27.1621ZM133.874 28.2421C133.982 28.1341 134.144 28.0801 134.252 28.0801C134.576 28.0801 134.846 28.4041 134.846 28.7281C134.846 28.8361 134.738 28.9981 134.63 29.1061C132.686 30.8881 128.474 32.4001 125.45 32.4001C123.56 32.4001 122.102 31.7521 122.21 30.0781C121.022 31.2661 118.484 33.8041 116.918 33.8041C116.648 33.8041 116.378 33.7501 116.162 33.5341C115.892 33.3181 115.784 32.9401 115.784 32.5621C115.784 30.4561 118.754 26.7301 121.778 26.7301C122.318 26.7301 122.804 26.8381 123.344 27.1081C123.398 27.0541 123.452 27.0001 123.506 27.0001C123.506 26.9461 123.938 26.5141 123.938 26.5141C124.046 26.3521 124.208 26.2981 124.37 26.2981C124.694 26.2981 124.964 26.5681 124.964 26.8381C124.964 27.0001 124.91 27.1081 124.802 27.2701C123.83 28.5661 123.398 29.5381 123.398 30.1321C123.398 30.9961 124.154 31.3741 125.234 31.3741C127.826 31.3741 132.308 29.5381 133.874 28.2421ZM116.918 32.7241C117.836 33.1561 121.886 28.8361 122.534 28.0801C122.264 27.9721 121.994 27.9181 121.67 27.9181C119.024 27.9181 116.378 32.0761 116.918 32.7241Z" fill="black"/>
</svg>
