<svg width="101" height="54" viewBox="0 0 101 54" fill="none" xmlns="http://www.w3.org/2000/svg">
<path d="M34.9921 0.108085C35.3701 0.108085 35.5321 0.432084 35.5321 0.702084C35.5321 1.02608 35.3161 1.35009 34.9381 1.29608C32.9401 1.24208 31.0501 1.18808 29.2141 1.18808C27.0541 1.18808 24.9481 1.24208 22.7341 1.35009C22.7881 1.45808 22.7341 1.62008 22.6801 1.72808C15.2821 16.7401 10.8001 33.2101 9.61208 49.9501C11.7721 49.9501 13.9861 50.0581 16.1461 50.2201C16.4701 50.2201 16.7401 50.4901 16.7401 50.8141C16.6861 51.1381 16.4161 51.4081 16.0921 51.4081C13.8781 51.2461 11.7181 51.1381 9.50408 51.1381V51.7861C9.50408 52.1641 9.18008 52.3801 8.85608 52.3801C8.58608 52.3801 8.31608 52.1641 8.31608 51.7861V51.1381C8.10008 51.1381 7.88408 51.1381 7.66808 51.1381C7.72208 51.1381 7.77608 51.1921 7.83008 51.1921C8.10008 51.3001 8.26208 51.5161 8.26208 51.7861C8.26208 52.1101 7.93808 52.4881 7.50608 52.3261C5.29208 51.5701 2.91608 51.4621 0.540079 51.4081C0.162079 51.4081 7.88718e-05 51.1381 7.88718e-05 50.8681C7.88718e-05 50.5441 0.216079 50.2741 0.594079 50.2201C3.24008 50.0581 5.72408 49.9501 8.42408 49.9501C9.55808 33.7501 13.8241 17.2261 21.5461 1.40408C17.1721 1.67408 12.8521 2.10609 8.53208 2.75408H8.37008C8.10008 2.75408 7.88408 2.64608 7.83008 2.37608V2.26808C7.83008 1.94408 7.99208 1.67408 8.26208 1.62008C15.1741 0.594085 22.2481 8.32081e-05 29.4841 8.32081e-05C31.3201 8.32081e-05 33.1561 0.0540825 34.9921 0.108085ZM40.9641 28.2961C41.0721 28.4041 41.1261 28.5121 41.1261 28.6741C41.1261 28.8361 41.0721 28.9981 40.9101 29.1061C39.1821 30.4561 36.5901 32.4001 33.5121 32.4001C30.3801 32.4001 30.2721 30.2941 30.0021 28.9981C29.9481 28.7281 29.9481 28.1881 29.8401 28.1341H29.7321C29.6781 28.1341 29.0301 28.1341 27.0861 30.0781C26.0061 31.1581 25.0881 32.2381 24.7101 32.7781C24.7101 32.8321 24.6561 32.8861 24.6561 32.8861C24.5481 33.0481 24.3861 33.1021 24.1701 33.1021H24.1161C23.7921 33.1021 23.5761 32.7241 23.6301 32.4541C24.1161 30.1321 24.8721 27.9721 25.7361 25.8121C25.7901 25.5961 26.0601 25.4881 26.2761 25.4881C26.7081 25.4881 26.9241 25.9741 26.7621 26.2981C26.2221 27.6481 25.6821 28.9441 25.3041 30.3481C26.6541 28.7821 28.5981 26.9461 29.7321 26.9461C30.9201 26.9461 31.0821 28.0801 31.1361 28.8901C31.2441 30.1861 31.4061 31.3201 33.5121 31.3201C35.6181 31.3201 37.6161 30.1321 40.2081 28.1881C40.3161 28.1341 40.4241 28.0801 40.5321 28.0801C40.6401 28.0801 40.8021 28.1341 40.9641 28.2961ZM57.4438 28.2961C57.5518 28.4041 57.6058 28.5121 57.6058 28.6741C57.6058 28.8361 57.5518 28.9981 57.3898 29.1061C55.2838 30.7801 51.6118 32.4001 47.7238 33.8581C46.8598 34.1821 45.9958 34.5061 45.1318 34.8841C41.8918 46.9801 38.3278 53.1361 34.4398 53.1361C32.9278 53.1361 31.6858 51.8941 31.1998 49.8961C31.0918 49.3561 30.9838 48.7621 30.9838 48.1141C30.9838 44.4421 33.2518 39.0961 39.9478 35.9101C41.2978 35.2621 42.7558 34.6141 44.2138 34.0201C44.6458 32.3461 45.0778 30.5101 45.5098 28.4581C43.6738 30.5101 40.5958 33.8041 38.9758 33.8041H38.8138C38.4358 33.8041 38.1658 33.6421 38.0038 33.5341C37.6798 33.3181 37.5178 32.8861 37.5178 32.4001C37.5178 31.1041 38.4358 29.1601 39.2998 28.0261C40.5418 26.4601 41.8918 25.6501 43.1338 25.6501C43.6738 25.6501 44.2138 25.7581 44.6998 26.0821C44.9698 26.2441 45.1318 26.5681 44.9158 26.8381C44.6998 27.1081 44.3758 27.2161 44.1058 27.0541C43.7818 26.8381 43.4578 26.7841 43.1338 26.7841C42.0538 26.7841 41.0818 27.7021 40.5418 28.2961C38.9758 30.1321 38.4898 32.3461 38.7598 32.6701C38.8138 32.6701 39.5158 32.9401 42.2698 30.2401C43.8358 28.7281 45.4558 26.9461 46.1038 26.0821C46.2658 25.8661 46.5898 25.7581 46.8598 25.9201C47.0218 26.0821 47.1298 26.2981 47.1298 26.5141C46.5898 28.9981 46.0498 31.3741 45.5098 33.4801C46.1038 33.2641 46.6978 32.9941 47.2918 32.7781C51.1798 31.3741 54.9058 30.0241 56.6878 28.2421C56.7958 28.1341 56.9038 28.0801 57.0118 28.0801C57.1738 28.0801 57.3358 28.1881 57.4438 28.2961ZM34.4398 52.0021C36.3838 52.0021 39.9478 49.5721 43.8358 35.4241C42.6478 35.8561 41.5138 36.3961 40.4338 36.9361C34.2238 40.0681 32.1718 44.8741 32.1718 48.1681C32.1718 48.7081 32.2258 49.1941 32.3338 49.6261C32.6578 51.0841 33.4678 52.0021 34.4398 52.0021ZM54.8624 38.1241C54.2144 38.1241 53.8364 37.8001 53.7284 37.6381C53.5664 37.4221 53.5124 37.1521 53.5124 36.8281C53.5124 34.6141 58.2104 31.3201 58.2104 30.6181C58.2104 30.4561 57.9404 30.1321 56.5364 29.3761C55.6724 28.9441 55.3484 28.2421 55.3484 27.5941C55.3484 26.1901 56.8064 24.6781 57.9944 24.6781C58.5884 24.6781 59.0204 25.0561 59.0204 25.5961C59.0204 26.0821 58.6424 26.8921 57.0224 28.3501C58.7504 29.2681 59.3444 29.8621 59.3444 30.7261C59.3444 32.1841 57.0764 33.2101 54.8624 36.1261C54.5924 36.4501 54.5924 36.7201 54.5924 36.8281V36.9361C55.2944 37.8001 65.7704 31.1041 69.3344 28.2421C69.4424 28.1341 69.6044 28.0801 69.7664 28.0801C69.9284 28.0801 70.0364 28.1341 70.1444 28.2961C70.3604 28.5121 70.3064 28.8901 70.0904 29.0521C67.4984 30.9961 57.4004 38.1241 54.8624 38.1241ZM70.7861 25.9741C70.4081 25.9741 70.1381 25.6501 70.1381 25.3261C70.1381 24.9481 70.4081 24.6781 70.7861 24.6781C71.1101 24.6781 71.4341 24.9481 71.4341 25.3261C71.4341 25.6501 71.1101 25.9741 70.7861 25.9741ZM70.1921 33.4801C69.0581 33.4801 68.1941 33.2641 67.6001 32.6701C67.2221 32.2921 67.0601 31.9141 67.0601 31.3741C67.0601 30.5101 67.6001 29.3221 68.4101 27.9721C68.5181 27.8101 68.6801 27.7561 68.8421 27.7561C68.9501 27.7561 69.0581 27.8101 69.1661 27.8641C69.3281 28.0261 69.4361 28.1881 69.4361 28.3501C69.4361 28.4581 69.3821 28.5661 69.3281 28.6741C68.5721 29.6461 68.1401 30.6181 68.1401 31.2661C68.1401 31.4821 68.1941 31.6981 68.3561 31.8601C68.7341 32.2381 69.3821 32.4001 70.1921 32.4001C73.4321 32.4001 79.3721 29.7541 80.8841 28.2421C81.1001 28.0261 81.4781 28.0801 81.6941 28.2961C81.9101 28.5121 81.8561 28.8901 81.6401 29.1061C80.2361 30.5101 74.0801 33.4801 70.1921 33.4801ZM100.02 28.2961C100.128 28.4041 100.182 28.5121 100.182 28.6201C100.182 28.7821 100.074 28.9441 99.9663 29.0521C98.1303 30.4021 92.1903 33.4801 88.4103 33.4801C87.3843 33.4801 86.5203 33.2101 85.9263 32.6701C85.3323 32.1301 85.1163 31.3741 85.1163 30.4561C85.1163 29.5381 85.3863 28.4041 85.8183 27.0541C82.2543 32.3461 79.8783 34.8841 79.8783 34.9381C79.4463 35.4241 78.9063 35.6401 78.4203 35.6401C77.6643 35.6401 77.0703 35.0461 77.0703 33.9661C77.0703 31.5901 80.8503 25.9201 84.0903 24.8401C84.4143 24.7321 84.6843 24.6781 85.0083 24.6781C85.3323 24.6781 85.6563 24.7321 85.9263 24.8941C87.3303 22.6801 89.0583 19.6021 90.7863 16.6861C90.8943 16.5241 91.1103 16.4161 91.3263 16.4161C91.8123 16.4161 91.9743 16.9021 91.7583 17.2261C90.0843 20.0341 86.2503 27.1621 86.2503 30.5101C86.2503 31.1041 86.4123 31.5901 86.6823 31.8601C87.0603 32.2381 87.7083 32.4001 88.5723 32.4001C91.8123 32.4001 97.6443 29.8081 99.2103 28.2421C99.3183 28.1341 99.4263 28.0801 99.5343 28.0801C99.7503 28.0801 99.9123 28.1881 100.02 28.2961ZM78.1503 34.0741C78.1503 34.3981 78.2583 34.5061 78.4203 34.5061C79.4463 34.5061 83.5503 28.5121 85.2783 25.8661C83.1183 25.2721 78.1503 31.1041 78.1503 34.0741Z" fill="black"/>
</svg>
