<svg width="92" height="54" viewBox="0 0 92 54" fill="none" xmlns="http://www.w3.org/2000/svg">
<path d="M25.488 31.8599C25.542 31.8599 25.596 31.8059 25.65 31.8059C25.92 31.8059 26.082 32.0219 26.082 32.2919C26.082 32.5079 25.974 32.7779 25.65 32.8859C24.732 33.2099 23.76 33.4799 22.788 33.8579C21.762 34.1819 20.682 34.6139 19.656 34.9919C16.902 40.9859 11.07 51.7319 3.99601 53.0819C3.56401 53.1359 3.18601 53.1899 2.80801 53.1899C0.972012 53.1899 1.17496e-05 52.2179 1.17496e-05 50.6519C1.17496e-05 46.8719 5.67001 39.6359 18.846 34.1819C22.842 25.3799 25.002 16.5779 25.002 10.4219C25.002 5.7239 23.76 2.5379 21.114 1.9439C20.898 1.8899 20.682 1.8899 20.466 1.8899C15.984 1.8899 8.42401 10.6379 8.42401 20.3579C8.42401 23.4899 9.23401 26.7299 11.124 29.8079C11.178 29.8619 11.178 29.9159 11.178 29.9699C11.178 30.1859 11.016 30.4559 10.854 30.5639C10.746 30.6179 10.692 30.6179 10.584 30.6179C10.368 30.6179 10.206 30.5099 10.098 30.3479C8.10001 27.1619 7.29001 23.7599 7.29001 20.4659C7.29001 9.7199 15.93 -0.000101566 21.276 0.863897C24.84 1.4579 26.136 5.0759 26.136 9.8279C26.136 17.4419 22.842 27.9719 20.304 33.6419C21.978 32.9939 23.76 32.3999 25.488 31.8599ZM4.21201 51.9479C10.26 50.3819 15.498 41.3099 18.198 35.6399C6.42601 40.7699 1.13401 47.3579 1.13401 50.4359C1.13401 51.4619 1.78201 52.1099 3.02401 52.1099C3.34801 52.1099 3.78001 52.0559 4.21201 51.9479ZM62.494 29.1059C62.71 29.3759 62.71 29.6999 62.44 29.9159C60.766 31.3739 58.174 33.2639 55.042 33.2639C51.964 33.2639 51.694 31.1579 51.532 29.8619C51.532 29.5379 51.478 29.0519 51.37 28.9439H51.316C51.262 28.9439 50.56 28.9979 48.67 30.8879C47.482 32.0759 46.51 33.2639 46.24 33.6959C46.186 33.8039 46.078 33.8579 46.024 33.9119C45.916 33.9659 45.862 33.9659 45.754 33.9659C45.7 33.9659 45.7 33.9659 45.646 33.9659C45.538 33.9659 45.484 33.9119 45.43 33.8579C45.268 33.7499 45.16 33.5879 45.16 33.3719C45.16 33.2639 45.214 33.2099 45.214 33.1559C45.538 31.6439 45.916 30.1859 46.456 28.7819C44.566 30.2399 42.568 31.3739 40.732 32.0219C39.598 32.4539 38.518 32.6699 37.654 32.6699C36.736 32.6699 36.034 32.3999 35.548 31.9679C35.278 31.6979 34.954 31.2659 34.954 30.5639C33.172 32.4539 30.904 34.5599 29.554 34.6139C29.554 34.6139 29.5 34.6679 29.446 34.6679C29.068 34.6679 28.798 34.5059 28.636 34.3439C28.366 34.0739 28.258 33.7499 28.258 33.3719C28.258 32.4539 28.798 31.3739 29.446 30.4559C30.688 28.8359 32.47 27.5399 34.198 27.5399C34.738 27.5399 35.278 27.7019 35.818 27.9719C36.034 27.7019 36.196 27.4859 36.358 27.3239C36.466 27.1619 36.628 27.1079 36.844 27.1079C36.952 27.1079 37.06 27.1619 37.168 27.2159C37.276 27.3239 37.384 27.5399 37.384 27.7019C37.384 27.8099 37.33 27.9179 37.276 28.0259C36.466 29.0519 36.088 29.9159 36.088 30.5639C36.088 30.7799 36.142 30.9959 36.304 31.1579C36.574 31.3739 37.006 31.5359 37.6 31.5359C39.706 31.5359 43.54 30.0239 47.374 26.5679C47.428 26.4059 47.644 26.3519 47.806 26.3519C47.86 26.3519 47.968 26.3519 48.022 26.4059C48.238 26.4599 48.346 26.6219 48.4 26.7839V26.8919V26.9459C48.4 26.9999 48.4 27.0539 48.346 27.1619C47.752 28.4579 47.266 29.7539 46.888 31.1579C48.238 29.6459 50.182 27.8099 51.316 27.8099C52.45 27.8099 52.558 28.9439 52.666 29.7539C52.828 30.9959 52.936 32.1299 55.042 32.1299C57.148 32.1299 59.254 31.1579 61.738 29.0519C61.954 28.8359 62.332 28.8899 62.494 29.1059ZM32.902 31.0499C33.604 30.3479 34.36 29.5379 35.008 28.8359C34.738 28.7279 34.468 28.6739 34.198 28.6739C32.956 28.6739 31.714 29.5919 30.796 30.6179C29.554 32.0219 29.23 33.3179 29.392 33.4799C29.392 33.5339 30.094 33.7499 32.902 31.0499ZM91.5064 29.1059C91.6144 29.2139 91.6684 29.3219 91.6684 29.4299C91.6684 29.6459 91.5604 29.8079 91.4524 29.9159C89.1844 32.1839 84.2704 33.6419 79.5184 35.5319C74.5504 48.0059 69.9064 52.5959 66.9364 52.5959H66.7204C65.4784 52.5959 64.5604 51.5699 64.2904 50.1119C64.2364 49.7879 64.1824 49.4639 64.1824 49.0859C64.1824 47.4119 64.8304 45.4139 66.0184 43.5239C68.9884 38.7719 73.5784 36.7199 78.6544 34.6679C79.4104 32.6699 79.9504 31.2659 80.3284 30.1859C79.0864 32.0219 77.3044 34.6139 75.9544 34.6139C75.6844 34.6139 75.4684 34.5059 75.2524 34.2899C75.0904 34.1279 74.8744 33.9119 74.8744 33.2099C74.8744 32.5619 75.0364 31.5359 75.6844 29.8079C75.9004 29.1599 76.2244 28.5119 76.4944 27.8639C73.6324 30.0779 70.2844 32.3999 68.0704 32.3999C65.3704 32.3459 66.0184 28.9979 65.4784 28.9439C65.1544 28.8899 64.4524 29.2679 62.8864 30.8879C61.8064 31.9679 60.8884 33.0479 60.5104 33.5879C60.5104 33.6419 60.4564 33.6959 60.4564 33.6959C60.3484 33.8579 60.1864 33.9119 59.9704 33.9119H59.9164C59.5924 33.9119 59.3764 33.5339 59.4304 33.2639C59.9164 30.9419 60.6724 28.7819 61.5364 26.6219C61.6444 26.3519 62.0224 26.1899 62.2924 26.3519C62.5624 26.5139 62.6704 26.8379 62.5624 27.1079C62.0224 28.4579 61.4824 29.7539 61.1044 31.1579C62.4544 29.5919 64.3984 27.7559 65.5324 27.7559C67.8004 27.7559 66.0184 31.2659 68.2864 31.2659C70.5544 31.3199 75.1984 27.3239 77.8984 25.3259C78.0064 25.2719 78.1144 25.2179 78.2224 25.2179C78.6544 25.2179 79.0324 25.8119 78.7084 26.1899C77.5204 27.3779 75.7384 32.5079 76.0084 33.4259C77.0884 33.4799 80.2744 27.3779 81.5164 27.3779C82.0564 27.3779 82.3264 27.8099 82.2184 28.1879C81.6244 30.3479 80.8144 32.2919 80.1124 34.0739C83.8924 32.6159 88.4284 30.8339 90.6964 29.0519C90.8044 28.9439 90.9664 28.8899 91.0744 28.8899C91.2364 28.8899 91.3984 28.9979 91.5064 29.1059ZM66.9364 51.4619C68.8804 51.4619 73.0924 48.0599 78.0604 36.1259C76.8184 36.6119 75.6304 37.1519 74.4424 37.7459C67.9624 40.9859 65.2624 45.9539 65.2624 49.0319C65.2624 49.3559 65.3164 49.6259 65.3704 49.8959C65.4784 50.4359 65.8564 51.4619 66.9364 51.4619Z" fill="black"/>
</svg>
