<svg width="46" height="48" viewBox="0 0 46 48" fill="none" xmlns="http://www.w3.org/2000/svg">
<path d="M15.3423 0.151611C15.3546 0.151772 15.7471 0.170767 16.1313 0.19751C16.3247 0.210964 16.5176 0.226022 16.6606 0.242432C16.7318 0.250605 16.793 0.259852 16.8354 0.268799C16.8558 0.273107 16.8758 0.277865 16.8911 0.284424C16.898 0.287371 16.9102 0.293548 16.9204 0.303955C16.9259 0.309579 16.9332 0.318876 16.937 0.332275C16.9411 0.347425 16.9392 0.363112 16.9331 0.376221V0.377197C16.91 0.425231 16.8639 0.457459 16.8149 0.479736C16.7646 0.502615 16.7016 0.518921 16.6333 0.531494C16.4964 0.556683 16.3249 0.566819 16.1528 0.56958C15.9803 0.572345 15.8047 0.568108 15.6587 0.562744C15.5111 0.557322 15.3969 0.551035 15.3423 0.551025C11.8525 0.551025 8.88969 1.11245 6.38916 3.81372C3.68438 6.73711 2.67827 10.9646 3.55713 14.8254C4.43604 18.6689 7.22978 22.0673 11.0718 23.2024C12.1377 23.5163 13.2786 23.595 14.4321 23.595C15.0087 23.595 15.5877 23.5757 16.1616 23.5559C16.7352 23.5362 17.3043 23.5159 17.8589 23.5159C17.868 23.5159 18.263 23.5349 18.6489 23.5618C18.8422 23.5752 19.0353 23.5913 19.1782 23.6077C19.2492 23.6158 19.3097 23.6241 19.3521 23.6331C19.3725 23.6374 19.3924 23.6431 19.4077 23.6497C19.4145 23.6526 19.4268 23.6579 19.437 23.6682C19.4426 23.6739 19.4508 23.6836 19.4546 23.6975C19.4587 23.7127 19.4568 23.7283 19.4507 23.7415L19.4448 23.7395C19.4207 23.7836 19.378 23.8141 19.3315 23.8352C19.2813 23.858 19.219 23.8754 19.1509 23.8879C19.0141 23.9131 18.8423 23.9233 18.6704 23.926C18.4978 23.9288 18.3214 23.9236 18.1753 23.9182C18.0278 23.9128 17.9134 23.9075 17.8589 23.9075C15.1685 23.9075 12.3259 24.1317 9.64502 23.7268C4.9976 23.0244 1.40439 19.3798 0.371582 14.8469C-0.744627 9.96669 1.17816 4.56851 5.47998 1.85669C8.49791 -0.0433119 11.9534 0.151611 15.3423 0.151611Z" fill="#191919" stroke="#191919" stroke-width="0.118654"/>
<path d="M21.5129 0.059082C21.7991 0.0590844 22.6593 0.0618785 23.4485 0.0893555C23.843 0.103094 24.2213 0.122393 24.5012 0.151855C24.6408 0.166542 24.7585 0.184022 24.842 0.20459C24.8833 0.214744 24.92 0.227165 24.9475 0.241699C24.9612 0.248941 24.9758 0.258211 24.9875 0.270996C24.9998 0.284365 25.011 0.304292 25.011 0.32959V47.1929H29.6262C30.7193 47.1929 31.859 47.3022 32.9358 47.1929C35.6297 46.9139 38.1383 45.1382 39.7258 43.0171C43.0128 38.6239 42.9511 32.179 39.5549 27.8647C37.9545 25.8358 35.5123 24.1946 32.9006 23.9155C32.2414 23.8457 31.5627 23.8462 30.8811 23.8638C30.2008 23.8813 29.5143 23.9165 28.8479 23.9165C28.8317 23.9162 28.4411 23.8972 28.0588 23.8706C27.8654 23.8571 27.6726 23.8411 27.5295 23.8247C27.4586 23.8166 27.3981 23.8082 27.3557 23.7993C27.3352 23.795 27.3144 23.7893 27.2991 23.7827C27.2922 23.7797 27.2798 23.7744 27.2698 23.7642C27.2642 23.7585 27.2569 23.7486 27.2532 23.7349C27.249 23.7197 27.251 23.704 27.2571 23.6909L27.2786 23.6577C27.3037 23.6272 27.3393 23.6052 27.3762 23.5884C27.4266 23.5655 27.4887 23.5482 27.5569 23.5356C27.6937 23.5105 27.8653 23.5003 28.0374 23.4976C28.2098 23.4948 28.3855 23.5 28.5315 23.5054C28.6789 23.5108 28.7932 23.5161 28.8479 23.5161C30.5829 23.5161 32.4011 23.4197 34.176 23.5396C35.9522 23.6595 37.6941 23.9964 39.2854 24.8667L39.2942 24.8716L39.2961 24.8726C43.7645 27.3177 45.6707 32.3057 45.1858 36.979C44.7006 41.6531 41.8218 46.0263 36.7073 47.2349C34.177 47.83 31.3887 47.5923 28.8264 47.5923H20.8538C20.8447 47.5923 20.4505 47.5742 20.0647 47.5474C19.8712 47.5339 19.6775 47.5179 19.5344 47.5015C19.4634 47.4933 19.403 47.485 19.3606 47.4761C19.3401 47.4718 19.3203 47.4661 19.3049 47.4595C19.2981 47.4566 19.2859 47.4513 19.2756 47.4409C19.2701 47.4353 19.2628 47.4254 19.259 47.4116C19.2549 47.3964 19.2559 47.3808 19.262 47.3677L19.2629 47.3667C19.2861 47.3189 19.3323 47.2873 19.3811 47.2651C19.4315 47.2423 19.4944 47.225 19.5627 47.2124C19.6994 47.1873 19.8705 47.1771 20.0422 47.1743C20.2148 47.1715 20.3913 47.1758 20.5374 47.1812C20.6849 47.1866 20.7992 47.1929 20.8538 47.1929H21.8176V0.453613C21.5873 0.453866 21.1555 0.456303 20.7678 0.447754C20.5561 0.44308 20.3558 0.435637 20.2083 0.42334C20.135 0.417223 20.0726 0.409231 20.0276 0.399902C20.0056 0.395338 19.9841 0.390099 19.967 0.382324C19.9587 0.378503 19.9483 0.371914 19.9387 0.362793C19.9338 0.358067 19.9275 0.351866 19.9231 0.343262L19.9153 0.312012L19.927 0.27002C19.9336 0.258819 19.9421 0.250013 19.9495 0.243652C19.9648 0.230472 19.9843 0.220452 20.0032 0.212402C20.0415 0.196104 20.0935 0.181706 20.1526 0.169434C20.2717 0.144699 20.4327 0.125133 20.6028 0.108887C20.9437 0.0763357 21.3307 0.059082 21.5129 0.059082Z" fill="#191919" stroke="#191919" stroke-width="0.118654"/>
</svg>
