<svg width="151" height="157" viewBox="0 0 151 157" fill="none" xmlns="http://www.w3.org/2000/svg">
<path d="M38.895 17.5294C45.1009 13.9191 52.1409 14.3038 59.0767 14.3038C59.1009 14.3042 59.9266 14.344 60.7378 14.4005C61.1458 14.4288 61.5518 14.4617 61.8521 14.4962C62.0017 14.5133 62.127 14.5307 62.2134 14.5489C62.2558 14.5578 62.2927 14.568 62.3188 14.5792C62.3311 14.5844 62.3473 14.5928 62.3599 14.6055C62.3665 14.6123 62.3753 14.6228 62.3794 14.6378C62.3816 14.6459 62.3821 14.6542 62.3813 14.6622L62.3745 14.6856C62.3355 14.7666 62.2546 14.8256 62.1567 14.8702C62.0573 14.9153 61.9311 14.9496 61.7896 14.9756C61.5061 15.0278 61.1486 15.0499 60.7866 15.0557C60.4241 15.0615 60.0545 15.0514 59.7466 15.0401C59.4374 15.0287 59.1935 15.0157 59.0767 15.0157C51.704 15.0157 45.4289 16.2012 40.1333 21.9219C34.409 28.1087 32.2818 37.0536 34.1411 45.2217C36.0006 53.3527 41.911 60.5459 50.0454 62.9493C52.3038 63.6143 54.7189 63.7813 57.1558 63.7813C58.3742 63.7813 59.5978 63.74 60.8091 63.6983C62.0199 63.6566 63.219 63.6143 64.3882 63.6143C64.4046 63.6143 65.2342 63.6543 66.0493 63.711C66.4574 63.7394 66.8642 63.7722 67.1646 63.8067C67.3142 63.8239 67.4395 63.8412 67.5259 63.8594C67.5683 63.8684 67.6052 63.8785 67.6313 63.8897C67.6435 63.895 67.6599 63.9034 67.6724 63.9161C67.679 63.9229 67.6869 63.9336 67.6909 63.9483V63.9512L67.6929 63.9522V63.9727C67.6921 63.9806 67.6903 63.9881 67.687 63.9952L67.6763 63.9922C67.6347 64.0653 67.5599 64.1206 67.4683 64.1622C67.369 64.2073 67.2435 64.2416 67.1021 64.2676C66.8187 64.3198 66.4609 64.3419 66.0991 64.3477C65.7367 64.3535 65.3669 64.3434 65.0591 64.3321C64.7496 64.3207 64.505 64.3077 64.3882 64.3077C58.7027 64.3077 52.7136 64.7806 47.062 63.9268C37.2831 62.4488 29.7187 54.7808 27.5444 45.2383C25.194 34.9631 29.2444 23.5986 38.2974 17.8917L38.895 17.5294Z" fill="#191919" stroke="#191919" stroke-width="0.118654"/>
<path d="M72.0925 14.1094C72.6957 14.1094 74.5108 14.1139 76.1755 14.1719C77.0078 14.2009 77.8038 14.2437 78.3923 14.3057C78.686 14.3366 78.9304 14.3728 79.1023 14.415C79.1878 14.4361 79.2592 14.4594 79.3103 14.4863C79.3358 14.4998 79.3598 14.5157 79.3777 14.5352C79.3959 14.5551 79.4099 14.5821 79.4099 14.6143V113.583H89.2146C91.5127 113.583 93.9308 113.815 96.2078 113.584C101.916 112.993 107.225 109.231 110.583 104.744C117.538 95.4486 117.408 81.8134 110.221 72.6846C106.836 68.3924 101.667 64.9174 96.1335 64.3262C94.7377 64.1783 93.3017 64.1788 91.8621 64.2158C90.4238 64.2528 88.9794 64.3271 87.574 64.3271C87.5573 64.3271 86.7278 64.2872 85.9128 64.2305C85.5049 64.2021 85.0989 64.1692 84.7986 64.1348C84.6487 64.1176 84.5227 64.0993 84.4363 64.0811C84.3943 64.0722 84.3578 64.0628 84.3318 64.0518C84.3196 64.0465 84.3033 64.0381 84.2908 64.0254C84.2841 64.0186 84.2754 64.008 84.2712 63.9932C84.2668 63.9768 84.2685 63.9596 84.2751 63.9453H84.2761C84.3152 63.8642 84.3958 63.8043 84.4939 63.7598C84.5933 63.7146 84.7195 63.6804 84.8611 63.6543C85.1445 63.6022 85.5022 63.581 85.864 63.5752C86.2265 63.5694 86.5962 63.5795 86.9041 63.5908C87.2133 63.6022 87.4573 63.6143 87.574 63.6143C91.2407 63.6143 95.071 63.4103 98.8142 63.6631C102.559 63.916 106.225 64.6267 109.572 66.458L109.591 66.4668L109.593 66.4678C118.995 71.6129 123.01 82.1124 121.988 91.9551C120.966 101.799 114.906 111 104.145 113.543C98.8152 114.797 92.9438 114.295 87.5281 114.295H70.7019C70.6855 114.295 69.855 114.256 69.0398 114.199C68.6318 114.171 68.2258 114.138 67.9255 114.104C67.7758 114.086 67.6506 114.068 67.5642 114.05C67.5218 114.041 67.4849 114.032 67.4587 114.021C67.4465 114.015 67.4303 114.007 67.4177 113.994C67.411 113.987 67.4033 113.976 67.3992 113.961C67.3948 113.945 67.3965 113.928 67.4031 113.914V113.913C67.4422 113.832 67.5238 113.773 67.6218 113.729C67.7211 113.683 67.8467 113.649 67.988 113.623C68.2714 113.571 68.6291 113.55 68.991 113.544C69.3535 113.538 69.7231 113.548 70.031 113.56C70.3405 113.571 70.5851 113.583 70.7019 113.583H72.8025V14.8125C72.3366 14.8128 71.3794 14.8157 70.5232 14.7969C70.0762 14.787 69.6549 14.7719 69.3455 14.7461C69.1913 14.7332 69.0624 14.7171 68.9714 14.6982C68.9266 14.6889 68.8874 14.6783 68.8582 14.665C68.8437 14.6584 68.8279 14.6498 68.8152 14.6377C68.8087 14.6315 68.8018 14.6233 68.7966 14.6133L68.7878 14.5771L68.7917 14.5479C68.7996 14.5206 68.8182 14.4993 68.8367 14.4834C68.8617 14.4619 68.8952 14.4435 68.9324 14.4277C69.0072 14.3959 69.1117 14.3674 69.2351 14.3418C69.4831 14.2903 69.8207 14.2471 70.1794 14.2129C70.8971 14.1444 71.7104 14.1094 72.0925 14.1094Z" fill="#191919" stroke="#191919" stroke-width="0.118654"/>
<path d="M143.358 145.621L146 139.294C146.38 138.367 146.57 137.852 146.57 137.75C146.57 137.287 146.056 137.046 145.027 137.027V136.388H149.031V137.027C148.41 137.055 147.956 137.222 147.669 137.528C147.381 137.825 147.024 138.487 146.598 139.516L141.523 151.766C141.041 152.934 140.614 153.727 140.244 154.144C139.873 154.571 139.465 154.784 139.02 154.784C138.417 154.784 138.116 154.51 138.116 153.963C138.116 153.333 138.598 152.8 139.562 152.364C140.128 152.114 140.503 151.901 140.688 151.725C140.883 151.549 141.073 151.229 141.259 150.765L142.343 148.054L138.06 138.877C137.68 138.07 137.365 137.56 137.115 137.347C136.865 137.134 136.438 137.027 135.836 137.027V136.388H141.064V137.027C140.146 137.055 139.687 137.245 139.687 137.597C139.687 137.737 139.868 138.191 140.23 138.96L143.358 145.621Z" fill="#191919"/>
<path d="M135.474 137.027H132.04V143.91C132.04 144.967 132.086 145.681 132.179 146.052C132.272 146.413 132.466 146.705 132.763 146.928C133.069 147.15 133.393 147.261 133.736 147.261C134.404 147.261 134.983 146.881 135.474 146.121L135.919 146.385C135.632 146.997 135.205 147.461 134.64 147.776C134.084 148.082 133.518 148.235 132.944 148.235C132.276 148.235 131.688 148.04 131.178 147.651C130.677 147.252 130.362 146.788 130.232 146.26C130.112 145.732 130.051 144.805 130.051 143.479V137.027H128.397V136.388C129.157 136.369 129.838 136.049 130.441 135.428C131.043 134.807 131.428 133.936 131.595 132.814H132.04V136.388H135.474V137.027Z" fill="#191919"/>
<path d="M125.185 136.388V143.855C125.185 145.097 125.203 145.875 125.24 146.191C125.277 146.506 125.412 146.742 125.643 146.9C125.884 147.057 126.311 147.136 126.923 147.136V147.776C125.514 147.794 124.485 147.943 123.836 148.221H123.669C123.372 147.711 123.215 146.83 123.196 145.579C122.631 146.459 121.982 147.122 121.25 147.567C120.526 148.012 119.725 148.235 118.844 148.235C118.084 148.235 117.412 148.063 116.828 147.72C116.244 147.368 115.841 146.941 115.618 146.441C115.405 145.94 115.298 145.185 115.298 144.174V140.295C115.298 138.979 115.275 138.177 115.229 137.889C115.182 137.593 115.034 137.375 114.784 137.236C114.543 137.097 114.093 137.027 113.435 137.027V136.388H117.301V144.286C117.301 145.064 117.347 145.63 117.44 145.982C117.532 146.334 117.769 146.645 118.149 146.914C118.529 147.173 118.969 147.303 119.47 147.303C120.184 147.303 120.865 147.071 121.514 146.608C122.163 146.135 122.603 145.639 122.835 145.12C123.076 144.592 123.196 143.841 123.196 142.867V140.295C123.196 139.053 123.182 138.297 123.154 138.029C123.127 137.76 123.006 137.528 122.793 137.333C122.589 137.129 122.158 137.027 121.5 137.027H121.208V136.388H125.185Z" fill="#191919"/>
<path d="M112.003 145.69H112.517C112.434 147.275 111.655 148.068 110.181 148.068C109.551 148.068 109.051 147.901 108.68 147.567C108.318 147.233 108.082 146.738 107.971 146.079C107.044 146.738 106.195 147.233 105.426 147.567C104.666 147.901 103.985 148.068 103.382 148.068C102.613 148.068 101.95 147.845 101.394 147.4C100.837 146.955 100.559 146.367 100.559 145.634C100.559 144.68 101.023 143.845 101.95 143.132C102.886 142.418 104.175 141.723 105.815 141.046L107.971 140.17V139.614C107.971 138.826 107.92 138.256 107.818 137.903C107.716 137.551 107.451 137.236 107.025 136.958C106.599 136.68 106.038 136.541 105.343 136.541C103.952 136.541 103.178 137.004 103.02 137.931C102.872 138.877 102.483 139.349 101.852 139.349C101.287 139.349 101.004 139.081 101.004 138.543C101.004 138.015 101.38 137.449 102.131 136.847C102.881 136.235 104.049 135.929 105.635 135.929C106.812 135.929 107.725 136.114 108.374 136.485C109.023 136.856 109.449 137.278 109.653 137.75C109.866 138.223 109.973 138.946 109.973 139.92V144.522C109.973 145.597 110.028 146.288 110.14 146.594C110.251 146.9 110.492 147.053 110.863 147.053C111.475 147.053 111.855 146.598 112.003 145.69ZM107.971 140.823L106.455 141.435C104.063 142.409 102.868 143.632 102.868 145.106C102.868 145.69 103.02 146.163 103.326 146.524C103.632 146.877 104.031 147.053 104.522 147.053C104.958 147.053 105.463 146.909 106.038 146.622C106.613 146.334 107.257 145.903 107.971 145.329V140.823Z" fill="#191919"/>
<path d="M98.3762 140.239H90.4366C90.3995 140.786 90.3809 141.194 90.3809 141.463C90.3809 143.465 90.6915 144.972 91.3126 145.982C91.9429 146.983 92.8792 147.484 94.1213 147.484C95.8084 147.484 97.0042 146.728 97.7088 145.217H98.3762C98.0795 146.163 97.4909 146.904 96.6103 147.442C95.7296 147.97 94.7702 148.235 93.732 148.235C92.7679 148.235 91.8548 147.994 90.9928 147.512C90.1399 147.02 89.4401 146.33 88.8931 145.44C88.3462 144.55 88.0728 143.47 88.0728 142.2C88.0728 140.402 88.6011 138.909 89.6579 137.723C90.7147 136.527 92.0356 135.929 93.6208 135.929C95.1132 135.929 96.2673 136.383 97.083 137.292C97.8988 138.2 98.3298 139.183 98.3762 140.239ZM95.9429 139.683C95.9707 139.47 95.9846 139.28 95.9846 139.113C95.9846 138.297 95.7435 137.667 95.2615 137.222C94.7888 136.768 94.2048 136.541 93.5095 136.541C91.8224 136.541 90.8166 137.588 90.4922 139.683H95.9429Z" fill="#191919"/>
<path d="M79.3963 137.625C81.5377 137.783 83.1274 138.316 84.1657 139.224C85.2039 140.133 85.723 141.268 85.723 142.631C85.723 143.818 85.3707 144.842 84.6662 145.704C83.9617 146.557 83.0579 147.118 81.9548 147.386C80.861 147.646 79.3917 147.776 77.547 147.776H70.1497V147.136H70.8727C71.6792 147.136 72.2354 147.034 72.5413 146.83C72.8565 146.626 73.0558 146.311 73.1392 145.885C73.2226 145.449 73.2643 144.443 73.2643 142.867V133.69C73.2643 132.161 73.218 131.173 73.1253 130.729C73.0418 130.284 72.8565 129.978 72.5691 129.811C72.291 129.644 71.6745 129.561 70.7198 129.561H70.3582V128.921L73.459 128.837L76.9908 128.726C82.1448 128.726 84.7219 130.209 84.7219 133.176C84.7219 134.399 84.2769 135.382 83.387 136.124C82.5064 136.865 81.1761 137.366 79.3963 137.625ZM75.9897 137.361C76.2214 137.37 76.4161 137.375 76.5737 137.375C78.5759 137.375 79.9432 137.06 80.6756 136.429C81.4079 135.799 81.774 134.779 81.774 133.37C81.774 132.388 81.6304 131.628 81.343 131.09C81.0556 130.552 80.6246 130.14 80.0499 129.853C79.4751 129.556 78.4925 129.408 77.102 129.408C76.7405 129.408 76.3697 129.421 75.9897 129.449V137.361ZM75.9897 138.042V142.242C75.9897 144.031 76.0221 145.166 76.087 145.648C76.1519 146.13 76.3234 146.497 76.6015 146.747C76.8888 146.997 77.4497 147.122 78.2839 147.122C79.7671 147.122 80.8795 146.742 81.6211 145.982C82.3627 145.222 82.7335 144.082 82.7335 142.561C82.7335 141.004 82.3117 139.859 81.4681 139.127C80.6339 138.385 79.1599 138.015 77.0464 138.015C76.7127 138.015 76.3605 138.024 75.9897 138.042Z" fill="#191919"/>
<path d="M61.5564 145.69H62.0709C61.9875 147.275 61.2088 148.068 59.7349 148.068C59.1045 148.068 58.604 147.901 58.2332 147.567C57.8717 147.233 57.6353 146.738 57.524 146.079C56.597 146.738 55.7489 147.233 54.9795 147.567C54.2193 147.901 53.538 148.068 52.9355 148.068C52.1661 148.068 51.5033 147.845 50.9471 147.4C50.3909 146.955 50.1128 146.367 50.1128 145.634C50.1128 144.68 50.5763 143.845 51.5033 143.132C52.4395 142.418 53.728 141.723 55.3688 141.046L57.524 140.17V139.614C57.524 138.826 57.473 138.256 57.3711 137.903C57.2691 137.551 57.0049 137.236 56.5785 136.958C56.1521 136.68 55.5913 136.541 54.896 136.541C53.5056 136.541 52.7315 137.004 52.5739 137.931C52.4256 138.877 52.0363 139.349 51.4059 139.349C50.8405 139.349 50.5577 139.081 50.5577 138.543C50.5577 138.015 50.9332 137.449 51.684 136.847C52.4349 136.235 53.6029 135.929 55.188 135.929C56.3653 135.929 57.2784 136.114 57.9273 136.485C58.5762 136.856 59.0026 137.278 59.2065 137.75C59.4197 138.223 59.5263 138.946 59.5263 139.92V144.522C59.5263 145.597 59.5819 146.288 59.6932 146.594C59.8044 146.9 60.0454 147.053 60.4162 147.053C61.028 147.053 61.4081 146.598 61.5564 145.69ZM57.524 140.823L56.0084 141.435C53.6168 142.409 52.421 143.632 52.421 145.106C52.421 145.69 52.5739 146.163 52.8798 146.524C53.1857 146.877 53.5843 147.053 54.0757 147.053C54.5113 147.053 55.0165 146.909 55.5913 146.622C56.166 146.334 56.8103 145.903 57.524 145.329V140.823Z" fill="#191919"/>
<path d="M46.5392 128.657V143.868C46.5392 145.083 46.5531 145.848 46.5809 146.163C46.618 146.478 46.7524 146.719 46.9841 146.886C47.2159 147.053 47.6284 147.136 48.2217 147.136H48.5554V147.776H42.4651V147.136H42.8544C43.4106 147.136 43.8046 147.062 44.0363 146.914C44.2773 146.756 44.421 146.538 44.4674 146.26C44.5137 145.982 44.5369 145.185 44.5369 143.868V132.606C44.5369 131.41 44.4303 130.659 44.2171 130.353C44.0039 130.038 43.4848 129.88 42.6598 129.88V129.241C43.2252 129.241 43.888 129.176 44.6481 129.046C45.4175 128.916 45.9459 128.786 46.2333 128.657H46.5392Z" fill="#191919"/>
<path d="M37.0979 138.835C37.4131 138.01 37.923 137.319 38.6275 136.763C39.3412 136.207 40.0365 135.929 40.7132 135.929C41.325 135.929 41.807 136.119 42.1593 136.499C42.5115 136.879 42.6877 137.268 42.6877 137.667C42.6877 137.936 42.595 138.168 42.4096 138.362C42.2334 138.557 42.0156 138.654 41.756 138.654C41.2926 138.654 40.9403 138.311 40.6993 137.625C40.5324 137.162 40.2821 136.93 39.9484 136.93C39.5498 136.93 39.0724 137.203 38.5162 137.75C37.96 138.288 37.6032 138.849 37.4456 139.433C37.288 140.017 37.2092 140.819 37.2092 141.838V143.869C37.2092 145.083 37.2231 145.848 37.2509 146.163C37.288 146.478 37.4224 146.719 37.6541 146.886C37.8859 147.053 38.2984 147.136 38.8917 147.136H39.281V147.776H33.2324V147.136H33.5244C34.0806 147.136 34.4746 147.062 34.7063 146.914C34.9473 146.756 35.091 146.538 35.1374 146.26C35.1837 145.982 35.2069 145.185 35.2069 143.869V140.657C35.2069 139.433 35.1884 138.668 35.1513 138.362C35.1235 138.047 34.9937 137.806 34.7619 137.639C34.5302 137.463 34.1177 137.375 33.5244 137.375H33.2324V136.749C34.1038 136.647 35.244 136.374 36.653 135.929C36.9218 136.661 37.0701 137.63 37.0979 138.835Z" fill="#191919"/>
<path d="M31.5498 145.69H32.0643C31.9809 147.275 31.2022 148.068 29.7283 148.068C29.0979 148.068 28.5974 147.901 28.2266 147.567C27.8651 147.233 27.6287 146.738 27.5174 146.079C26.5905 146.738 25.7423 147.233 24.9729 147.567C24.2127 147.901 23.5314 148.068 22.9289 148.068C22.1595 148.068 21.4967 147.845 20.9405 147.4C20.3843 146.955 20.1062 146.367 20.1062 145.634C20.1062 144.68 20.5697 143.845 21.4967 143.132C22.4329 142.418 23.7214 141.723 25.3622 141.046L27.5174 140.17V139.614C27.5174 138.826 27.4665 138.256 27.3645 137.903C27.2625 137.551 26.9983 137.236 26.5719 136.958C26.1455 136.68 25.5847 136.541 24.8894 136.541C23.499 136.541 22.7249 137.004 22.5673 137.931C22.419 138.877 22.0297 139.349 21.3993 139.349C20.8339 139.349 20.5512 139.081 20.5512 138.543C20.5512 138.015 20.9266 137.449 21.6774 136.847C22.4283 136.235 23.5963 135.929 25.1814 135.929C26.3587 135.929 27.2718 136.114 27.9207 136.485C28.5696 136.856 28.996 137.278 29.1999 137.75C29.4131 138.223 29.5197 138.946 29.5197 139.92V144.522C29.5197 145.597 29.5753 146.288 29.6866 146.594C29.7978 146.9 30.0388 147.053 30.4096 147.053C31.0214 147.053 31.4015 146.598 31.5498 145.69ZM27.5174 140.823L26.0018 141.435C23.6102 142.409 22.4144 143.632 22.4144 145.106C22.4144 145.69 22.5673 146.163 22.8732 146.524C23.1792 146.877 23.5778 147.053 24.0691 147.053C24.5047 147.053 25.0099 146.909 25.5847 146.622C26.1594 146.334 26.8037 145.903 27.5174 145.329V140.823Z" fill="#191919"/>
<path d="M16.5328 140.698H17.1307V147.303H16.5328C16.3659 146.552 16.0646 145.889 15.629 145.315C13.9697 147.187 11.8515 148.123 9.27448 148.123C6.54914 148.123 4.31975 147.261 2.58629 145.537C0.862095 143.813 0 141.533 0 138.696C0 136.833 0.398603 135.081 1.19581 133.44C1.99302 131.79 3.1054 130.566 4.53295 129.769C5.96051 128.972 7.52711 128.573 9.23276 128.573C10.6418 128.573 11.9164 128.865 13.0566 129.449C14.206 130.024 15.0635 130.664 15.629 131.368C16.0276 130.58 16.2686 129.764 16.352 128.921H16.9638L17.1307 136.068H16.5328C16.1156 133.528 15.2628 131.762 13.9743 130.77C12.6951 129.778 11.249 129.282 9.636 129.282C7.66153 129.282 6.09029 130.084 4.92229 131.688C3.76356 133.292 3.18419 135.586 3.18419 138.571C3.18419 141.398 3.81918 143.567 5.08914 145.078C6.35911 146.58 7.93962 147.331 9.83067 147.331C10.8411 147.331 11.8747 147.085 12.9314 146.594C13.9882 146.103 14.8225 145.273 15.4343 144.105C16.0554 142.928 16.4215 141.792 16.5328 140.698Z" fill="#191919"/>
</svg>
